HIERARCHY
ROOT Hips
{
	OFFSET 0.000000 0.000000 0.000000
	CHANNELS 6 Xposition Yposition Zposition Zrotation Yrotation Xrotation 
	JOINT LHipJoint
	{
		OFFSET 0.000000 0.000000 0.000000
		CHANNELS 3 Zrotation Yrotation Xrotation
		JOINT LeftUpLeg
		{
			OFFSET 1.363060 -1.794630 0.839290
			CHANNELS 3 Zrotation Yrotation Xrotation
			JOINT LeftLeg
			{
				OFFSET 2.448110 -6.726130 0.000000
				CHANNELS 3 Zrotation Yrotation Xrotation
				JOINT LeftFoot
				{
					OFFSET 2.562200 -7.039590 0.000000
					CHANNELS 3 Zrotation Yrotation Xrotation
					JOINT LeftToeBase
					{
						OFFSET 0.157640 -0.433110 2.322550
						CHANNELS 3 Zrotation Yrotation Xrotation
						End Site
						{
							OFFSET 0.000000 0.000000 0.000000
						}
					}
				}
			}
		}
	}
	JOINT RHipJoint
	{
		OFFSET 0.000000 0.000000 0.000000
		CHANNELS 3 Zrotation Yrotation Xrotation
		JOINT RightUpLeg
		{
			OFFSET -1.305520 -1.794630 0.839290
			CHANNELS 3 Zrotation Yrotation Xrotation
			JOINT RightLeg
			{
				OFFSET -2.542530 -6.985550 0.000000
				CHANNELS 3 Zrotation Yrotation Xrotation
				JOINT RightFoot
				{
					OFFSET -2.568260 -7.056230 0.000000
					CHANNELS 3 Zrotation Yrotation Xrotation
					JOINT RightToeBase
					{
						OFFSET -0.164730 -0.452590 2.363150
						CHANNELS 3 Zrotation Yrotation Xrotation
						End Site
						{
							OFFSET 0.000000 0.000000 0.000000
						}
					}
				}
			}
		}
	}
	JOINT LowerBack
	{
		OFFSET 0.000000 0.000000 0.000000
		CHANNELS 3 Zrotation Yrotation Xrotation
		JOINT Spine
		{
			OFFSET 0.028270 2.035590 -0.193380
			CHANNELS 3 Zrotation Yrotation Xrotation
			JOINT Spine1
			{
				OFFSET 0.056720 2.048850 -0.042750
				CHANNELS 3 Zrotation Yrotation Xrotation
				JOINT Neck
				{
					OFFSET 0.000000 0.000000 0.000000
					CHANNELS 3 Zrotation Yrotation Xrotation
					JOINT Neck1
					{
						OFFSET -0.054170 1.746240 0.172020
						CHANNELS 3 Zrotation Yrotation Xrotation
						JOINT Head
						{
							OFFSET 0.104070 1.761360 -0.123970
							CHANNELS 3 Zrotation Yrotation Xrotation
							End Site
							{
								OFFSET 0.000000 0.000000 0.000000
							}
						}
					}
				}
				JOINT LeftShoulder
				{
					OFFSET 0.000000 0.000000 0.000000
					CHANNELS 3 Zrotation Yrotation Xrotation
					JOINT LeftArm
					{
						OFFSET 3.362410 1.200890 -0.311210
						CHANNELS 3 Zrotation Yrotation Xrotation
						JOINT LeftForeArm
						{
							OFFSET 4.983000 -0.000000 -0.000000
							CHANNELS 3 Zrotation Yrotation Xrotation
							JOINT LeftHand
							{
								OFFSET 3.483560 -0.000000 -0.000000
								CHANNELS 3 Zrotation Yrotation Xrotation
								JOINT LeftFingerBase
								{
									OFFSET 0.000000 0.000000 0.000000
									CHANNELS 3 Zrotation Yrotation Xrotation
									JOINT LeftHandIndex1
									{
										OFFSET 0.715260 -0.000000 -0.000000
										CHANNELS 3 Zrotation Yrotation Xrotation
										End Site
										{
											OFFSET 0.000000 0.000000 0.000000
										}
									}
								}
								JOINT LThumb
								{
									OFFSET 0.000000 0.000000 0.000000
									CHANNELS 3 Zrotation Yrotation Xrotation
									End Site
									{
										OFFSET 0.000000 0.000000 0.000000
									}
								}
							}
						}
					}
				}
				JOINT RightShoulder
				{
					OFFSET 0.000000 0.000000 0.000000
					CHANNELS 3 Zrotation Yrotation Xrotation
					JOINT RightArm
					{
						OFFSET -3.136600 1.374050 -0.404650
						CHANNELS 3 Zrotation Yrotation Xrotation
						JOINT RightForeArm
						{
							OFFSET -5.241900 -0.000000 -0.000000
							CHANNELS 3 Zrotation Yrotation Xrotation
							JOINT RightHand
							{
								OFFSET -3.444170 -0.000000 -0.000000
								CHANNELS 3 Zrotation Yrotation Xrotation
								JOINT RightFingerBase
								{
									OFFSET 0.000000 0.000000 0.000000
									CHANNELS 3 Zrotation Yrotation Xrotation
									JOINT RightHandIndex1
									{
										OFFSET -0.622530 -0.000000 -0.000000
										CHANNELS 3 Zrotation Yrotation Xrotation
										End Site
										{
											OFFSET 0.000000 0.000000 0.000000
										}
									}
								}
								JOINT RThumb
								{
									OFFSET 0.000000 0.000000 0.000000
									CHANNELS 3 Zrotation Yrotation Xrotation
									End Site
									{
										OFFSET 0.000000 0.000000 0.000000
									}
								}
							}
						}
					}
				}
			}
		}
	}
}
MOTION
Frames: 8
Frame Time: 0.008333
0.944479 17.802365 28.409320 1.962158 2.226991 0.953943 -1.446836 5.970470 5.585030 -21.457705 -7.415425 -5.659569 -0.171668 5.271918 22.232408 1.300127 -4.474594 -0.334752 0.014437 -0.775157 -2.130327 0.751999 -4.109540 2.859186 15.232029 11.475758 -32.688412 -5.217859 -13.056763 42.368885 3.602101 -13.449433 2.129458 -0.001955 0.285360 -0.784021 -2.932025 -1.463022 6.284132 2.790239 -1.994267 4.486071 3.104612 -1.079999 -8.571618 -5.928332 -4.160432 -15.775965 4.654742 -4.727519 20.019386 0.418937 -1.795175 9.552600 -7.129699 2.681214 -1.171179 -78.664859 -2.413442 24.600391 14.630882 -24.252291 -3.272392 -0.360896 -0.706824 -7.530396 28.575567 18.444905 10.295870 -7.125000 0.000000 0.000000 0.799186 51.588219 0.131616 11.341551 -2.061676 -2.382093 76.457853 -1.111623 -3.733605 -7.100388 16.435446 -1.181648 1.014962 -0.624209 12.163577 -17.255834 21.380615 -6.990010 7.125000 0.000000 0.000000 6.545384 -7.394848 5.686784
0.941502 17.806664 28.500659 1.889846 2.219078 1.052592 -1.476733 6.001973 5.647296 -21.313521 -7.282580 -5.303204 -0.234635 5.143428 21.873606 1.287294 -4.406403 -0.361753 0.013112 -0.738871 -2.030582 0.838912 -4.092905 2.805651 15.142715 11.684765 -32.640985 -4.798533 -12.658470 40.708277 3.788261 -14.023934 2.740087 -0.002066 0.295081 -0.810863 -2.936072 -1.490509 6.193981 2.872114 -2.023637 4.503027 3.141883 -1.100052 -8.510784 -5.909731 -4.159883 -15.780486 4.591912 -4.719848 19.948539 0.397010 -1.799925 9.531999 -7.130972 2.669642 -1.168978 -78.561362 -2.598678 24.803671 14.689615 -24.340650 -3.296315 -0.362051 -0.717679 -7.815780 28.871700 18.853571 10.634210 -7.125000 0.000000 0.000000 1.035957 52.106056 0.182649 11.331522 -2.066923 -2.394696 76.516312 -1.250638 -3.386069 -7.218921 16.648261 -1.222322 1.018130 -0.606859 11.791922 -17.284383 21.265222 -6.962229 7.125000 0.000000 0.000000 6.520751 -7.519944 5.648951
0.937348 17.812978 28.596369 1.845216 2.189336 1.090270 -1.509246 6.036975 5.713283 -21.201413 -7.089784 -4.925365 -0.301642 5.001173 21.482754 1.263195 -4.321694 -0.289393 0.011710 -0.698168 -1.918728 0.933581 -4.084511 2.756917 15.011757 11.905389 -32.463321 -4.384425 -12.234007 39.032278 3.935236 -14.478921 3.356081 -0.001300 0.176640 -0.485432 -2.963232 -1.511325 6.157289 2.926592 -2.048775 4.516765 3.177310 -1.116587 -8.485917 -5.834231 -4.137838 -15.796083 4.517043 -4.694526 19.905220 0.365375 -1.792681 9.520079 -7.133000 2.659550 -1.166889 -78.453814 -2.755793 24.891199 14.716801 -24.387642 -3.305488 -0.365409 -0.734292 -7.922425 29.236581 19.594658 11.185809 -7.125000 0.000000 0.000000 1.284342 53.016032 0.258507 11.323303 -2.073338 -2.408165 76.569765 -1.426784 -3.055505 -7.309607 16.814537 -1.253574 1.021296 -0.593050 11.393251 -17.274007 21.209531 -6.938408 7.125000 0.000000 0.000000 6.524637 -7.585110 5.643939
0.932662 17.820200 28.694047 1.813058 2.149759 1.100478 -1.542937 6.073553 5.780947 -21.103758 -6.869975 -4.537850 -0.370469 4.852716 21.077461 1.234019 -4.229545 -0.172266 0.010274 -0.655475 -1.801419 1.031745 -4.079829 2.710345 14.862036 12.131247 -32.226979 -3.972668 -11.797753 37.349346 4.064558 -14.880063 3.974491 -0.000141 0.000456 -0.001285 -3.000807 -1.529135 6.144683 2.968726 -2.072007 4.529053 3.211907 -1.131539 -8.477254 -5.733095 -4.106110 -15.816671 4.436749 -4.661252 19.874305 0.329365 -1.780033 9.512071 -7.135366 2.650124 -1.164850 -78.344441 -2.900238 24.926575 14.729774 -24.415997 -3.308014 -0.369760 -0.753500 -7.948540 29.632436 20.485517 11.833493 -7.125000 0.000000 0.000000 1.537959 54.102685 0.345549 11.315900 -2.080280 -2.422024 76.620963 -1.619658 -2.732587 -7.387746 16.959847 -1.280580 1.024462 -0.580837 10.982407 -17.246094 21.180738 -6.916371 7.125000 0.000000 0.000000 6.541372 -7.623274 5.653715
0.928413 17.823206 28.785816 1.903805 2.193532 1.222107 -1.584269 6.086633 5.825549 -21.150607 -6.617897 -4.322561 -0.452397 4.676710 20.596948 1.195965 -4.125242 0.011744 0.029369 -1.033440 -2.841490 1.122255 -4.061472 2.652319 14.560262 12.302150 -32.147936 -3.580468 -11.362097 35.667756 4.192211 -15.317371 4.708429 -0.000194 -0.076133 0.209171 -3.135186 -1.563264 6.165534 2.974785 -2.129380 4.442421 3.294531 -1.158487 -8.541837 -5.629517 -4.068154 -15.900998 4.313462 -4.605947 19.942197 0.284133 -1.758940 9.543133 -7.140452 2.646055 -1.161377 -78.316685 -3.022324 24.812673 14.731889 -24.425481 -3.306340 -0.374736 -0.767433 -7.819314 29.927557 21.159762 12.332124 -7.125000 0.000000 0.000000 1.723043 54.927731 0.422933 11.314676 -2.087491 -2.422329 76.661427 -1.684553 -2.799806 -7.362468 16.917219 -1.270551 1.028513 -0.581478 10.937382 -17.307723 21.204291 -6.949665 7.125000 0.000000 0.000000 6.501465 -7.590139 5.622964
0.924336 17.825861 28.876863 2.019765 2.252649 1.357553 -1.625937 6.097921 5.868291 -21.223070 -6.378824 -4.106597 -0.535938 4.495848 20.105566 1.160251 -4.034867 0.201875 0.048132 -1.403549 -3.859941 1.211003 -4.041812 2.592573 14.226618 12.461639 -32.089510 -3.192365 -10.926122 33.987165 4.318039 -15.757045 5.460264 -0.000449 -0.139784 0.384067 -3.288949 -1.601363 6.186408 2.971729 -2.194255 4.345843 3.384750 -1.188541 -8.611148 -5.535110 -4.032051 -15.988113 4.194522 -4.551278 20.019623 0.241790 -1.738068 9.577638 -7.145285 2.642524 -1.157825 -78.296861 -3.139015 24.685521 14.737279 -24.438634 -3.306430 -0.379533 -0.779267 -7.674330 30.191396 21.740138 12.767756 -7.125000 0.000000 0.000000 1.892861 55.640611 0.494305 11.314623 -2.094665 -2.420628 76.702336 -1.726772 -2.925104 -7.323245 16.848757 -1.255767 1.032439 -0.583199 10.954008 -17.382109 21.216789 -6.984765 7.125000 0.000000 0.000000 6.452398 -7.566726 5.582985
0.921801 17.831649 28.969195 2.248605 2.364353 1.471770 -1.657800 6.129034 5.929098 -21.373189 -6.378333 -3.556760 -0.616833 4.300548 19.607448 1.173276 -4.157748 0.349562 0.023665 -0.873340 -2.401203 1.290109 -4.030115 2.530916 13.744039 12.568730 -32.016335 -2.823390 -10.484654 32.317681 4.422069 -16.160866 6.238908 -0.001167 -0.214344 0.588915 -3.525122 -1.662968 6.144513 2.912103 -2.297281 4.299792 3.488219 -1.238422 -8.607019 -5.570646 -4.032997 -15.993176 4.216016 -4.546856 20.041091 0.256316 -1.736135 9.585536 -7.141551 2.636258 -1.155896 -78.231582 -3.224118 24.658698 14.807904 -24.537501 -3.338539 -0.380695 -0.772366 -7.606801 30.217598 21.445954 12.623385 -7.125000 0.000000 0.000000 1.983217 55.313704 0.501705 11.318922 -2.100820 -2.417074 76.769565 -1.700340 -3.108715 -7.288361 16.781490 -1.245805 1.032984 -0.575465 11.123601 -17.462040 20.979537 -6.940249 7.125000 0.000000 0.000000 6.384907 -7.810567 5.493291
0.919137 17.835932 29.062108 2.451678 2.466082 1.578682 -1.689138 6.159688 5.989352 -21.504533 -6.328233 -3.044177 -0.695605 4.108638 19.115397 1.174736 -4.226758 0.481462 0.007605 -0.542451 -1.490704 1.370049 -4.019739 2.470677 13.283685 12.700444 -31.925263 -2.462183 -10.039901 30.670538 4.524939 -16.544895 6.920710 -0.003421 -0.339322 0.932367 -3.733332 -1.720276 6.089068 2.858846 -2.391158 4.256306 3.575913 -1.284579 -8.593964 -5.610872 -4.033964 -15.929961 4.243903 -4.549705 19.998996 0.271851 -1.739352 9.562635 -7.136232 2.627050 -1.153503 -78.154055 -3.292222 24.675214 14.883958 -24.643415 -3.373301 -0.381038 -0.764784 -7.604036 30.230713 21.098049 12.443491 -7.125000 0.000000 0.000000 2.068523 54.922823 0.503857 11.322436 -2.108886 -2.419346 76.835552 -1.737614 -3.172836 -7.282819 16.768449 -1.245708 1.034253 -0.564919 11.169154 -17.531042 20.754878 -6.894710 7.125000 0.000000 0.000000 6.325596 -8.043567 5.412246
